<?xml version="1.0" standalone="no"?>
<!DOCTYPE svg PUBLIC "-//W3C//DTD SVG 20010904//EN"
 "http://www.w3.org/TR/2001/REC-SVG-20010904/DTD/svg10.dtd">
<svg version="1.0" xmlns="http://www.w3.org/2000/svg"
 width="280.000000pt" height="237.000000pt" viewBox="0 0 280.000000 237.000000"
 preserveAspectRatio="xMidYMid meet">

<g transform="translate(0.000000,237.000000) scale(0.100000,-0.100000)"
fill="#000000" stroke="none">
<path d="M1175 2254 c-396 -39 -672 -131 -816 -274 -70 -69 -89 -108 -89 -184
0 -127 154 -259 405 -344 102 -35 303 -77 415 -88 58 -5 80 -12 95 -29 18 -19
19 -25 9 -51 -14 -33 -3 -54 28 -54 16 0 18 -5 13 -34 -10 -49 1 -74 33 -78
23 -2 27 -8 27 -33 0 -28 2 -30 38 -28 30 2 37 -1 37 -16 0 -43 72 -55 94 -16
6 11 12 22 13 24 2 2 9 -2 18 -9 26 -21 45 -4 45 40 0 33 3 40 19 40 30 0 33
-14 11 -63 -14 -32 -29 -48 -50 -56 -17 -5 -30 -15 -30 -20 0 -13 -2 -13 38
-2 43 13 41 -1 -3 -22 -19 -9 -35 -21 -35 -25 0 -15 74 -32 113 -25 29 4 38 2
43 -11 14 -37 -12 -41 -113 -17 -81 20 -94 26 -80 36 22 16 21 22 0 28 -15 4
-14 6 5 12 18 6 20 10 10 16 -7 4 -22 6 -33 3 -11 -2 -58 8 -104 24 -83 28
-85 30 -99 70 -16 48 -129 159 -145 143 -6 -6 -23 -1 -46 15 -19 13 -45 24
-57 24 -11 0 -31 12 -45 26 -31 33 -86 67 -101 62 -7 -3 -28 6 -47 19 -31 21
-52 28 -74 24 -5 -1 -24 12 -43 29 -34 30 -79 48 -91 36 -4 -3 -13 0 -22 7 -9
8 -36 22 -60 31 -33 13 -46 14 -57 5 -11 -9 -18 -8 -32 4 -14 13 -86 47 -98
47 -2 0 -4 -7 -4 -15 0 -20 -6 -19 -85 10 l-68 26 7 -33 c3 -18 15 -45 26 -60
26 -36 25 -43 -9 -58 -16 -6 -39 -22 -51 -35 l-21 -23 22 -16 c13 -9 40 -16
60 -16 20 0 50 -7 65 -15 16 -8 48 -15 71 -15 30 0 49 -6 63 -20 14 -14 33
-20 65 -20 30 0 51 -6 63 -18 11 -11 37 -22 59 -25 27 -5 42 -13 45 -25 4 -12
22 -22 58 -30 34 -8 61 -22 79 -41 18 -20 40 -30 74 -35 32 -5 47 -12 47 -22
0 -16 57 -44 89 -44 11 0 25 -9 31 -20 15 -27 62 -50 105 -50 39 0 53 -17 37
-46 -11 -20 6 -74 24 -74 7 0 67 14 133 31 l122 31 82 -20 c148 -38 155 -38
163 -8 3 15 4 38 2 51 -4 19 -1 25 13 26 11 1 24 3 29 4 6 1 19 3 30 4 10 0
34 14 52 29 18 16 52 34 76 41 30 8 46 19 52 37 6 15 17 24 30 24 12 0 41 5
66 11 37 10 44 15 39 30 -5 15 -1 19 17 20 13 0 43 6 68 12 33 9 45 17 45 31
0 14 9 20 35 22 19 3 47 13 62 24 16 12 43 20 66 20 24 0 49 8 65 20 16 13 40
20 66 20 23 0 58 7 78 15 19 8 48 15 63 15 26 0 80 33 80 48 -1 4 -23 18 -51
31 -42 21 -49 28 -44 45 4 12 9 38 12 58 6 49 -14 58 -62 29 -43 -25 -43 -25
-47 -7 -3 13 -11 12 -56 -3 -29 -10 -63 -28 -75 -39 -23 -22 -23 -22 -43 -2
-19 20 -20 20 -56 -5 -20 -14 -46 -25 -58 -25 -22 0 -73 -23 -100 -44 -8 -7
-33 -18 -55 -24 -23 -6 -54 -25 -70 -42 -32 -33 -50 -38 -59 -15 -9 23 -18 18
-55 -30 -21 -29 -41 -45 -55 -45 -12 0 -37 -8 -56 -19 -19 -10 -52 -23 -72
-30 -20 -7 -42 -19 -48 -27 -22 -26 -40 -16 -40 22 0 31 3 35 20 29 16 -5 20
-2 20 19 0 13 -5 37 -11 52 -7 20 -7 34 1 49 10 18 27 24 108 34 512 66 832
268 773 488 -54 198 -400 350 -910 398 -191 17 -246 17 -436 -1z m460 -34
c511 -46 866 -217 865 -416 -1 -149 -188 -280 -520 -363 -63 -16 -161 -34
-217 -40 -90 -11 -105 -10 -127 4 -14 9 -26 26 -28 38 -4 32 -83 55 -188 56
-115 1 -149 -10 -201 -66 -49 -53 -41 -52 -215 -28 -207 30 -429 101 -541 174
-99 64 -163 150 -163 219 0 166 226 309 611 387 211 42 494 56 724 35z m-1363
-731 c33 -17 58 -45 58 -65 0 -10 -61 4 -87 21 -12 8 -30 29 -39 46 -15 31
-15 31 8 24 13 -4 40 -16 60 -26z m2328 7 c0 -29 -14 -47 -49 -65 -48 -24 -88
-33 -96 -22 -3 6 -30 -1 -61 -16 -30 -14 -58 -22 -61 -19 -12 12 54 80 98 102
24 13 45 21 47 20 1 -2 -5 -17 -15 -34 -23 -41 -10 -52 25 -20 28 27 91 68
105 68 4 0 7 -6 7 -14z m-2210 -18 c37 -26 77 -74 68 -83 -3 -4 -28 4 -54 17
-35 16 -52 32 -61 56 -16 40 -2 43 47 10z m132 -30 c36 -20 87 -92 75 -104 -9
-9 -78 27 -84 44 -3 9 -15 29 -25 44 -31 45 -24 48 34 16z m854 -7 c-29 -30
-153 -97 -163 -88 -2 3 3 22 13 42 23 50 67 75 128 75 l50 0 -28 -29z m163 18
c36 -11 81 -64 81 -95 0 -11 -6 -14 -22 -9 -39 12 -102 52 -132 84 l-30 31 33
0 c19 0 50 -5 70 -11z m781 -18 c0 -33 -33 -78 -69 -95 -19 -8 -37 -13 -39
-11 -11 10 24 68 57 95 42 35 51 37 51 11z m-873 -33 l33 -32 -22 -23 c-25
-27 -45 -29 -70 -6 -23 20 -23 51 0 74 23 23 21 24 59 -13z m-789 -13 c16 -13
35 -38 42 -55 7 -16 16 -30 21 -30 5 0 9 -7 9 -15 0 -20 -4 -19 -49 10 -46 29
-71 61 -71 92 0 29 11 29 48 -2z m-355 2 c28 -2 20 -15 -23 -37 -52 -26 -130
-26 -130 1 0 18 75 49 105 43 17 -4 38 -7 48 -7z m1897 6 c1 -21 -47 -102 -59
-103 -8 0 -23 -7 -33 -17 -30 -27 -34 -5 -8 44 27 51 99 105 100 76z m460 -55
c0 -14 -73 -20 -110 -9 -48 14 -70 38 -44 47 11 3 28 9 39 14 14 5 34 0 67
-19 27 -14 48 -29 48 -33z m-2217 5 c30 -18 -88 -47 -143 -34 l-35 8 35 15
c19 9 42 18 50 21 15 6 78 -1 93 -10z m342 -25 c33 -31 74 -108 58 -108 -26 0
-75 45 -93 84 -11 25 -20 47 -20 50 0 15 23 3 55 -26z m565 17 c0 -31 -53 -76
-97 -82 -47 -6 -50 -2 -25 41 24 41 122 74 122 41z m193 -1 c48 -25 77 -55 77
-81 l0 -23 -39 19 c-21 11 -53 32 -70 47 -25 21 -29 29 -20 40 14 17 13 17 52
-2z m963 -10 l27 -18 -27 -9 c-19 -6 -47 -4 -89 6 -33 9 -65 13 -69 11 -15 -9
2 -24 28 -24 25 0 32 -14 12 -26 -17 -11 -99 -7 -133 6 l-29 11 44 20 c110 50
183 57 236 23z m-449 -35 c-10 -42 -16 -50 -55 -68 -25 -12 -46 -20 -48 -18
-10 10 45 95 75 114 19 13 35 22 36 21 2 -2 -2 -24 -8 -49z m-1506 20 c15 -8
18 -14 10 -23 -9 -11 2 -14 51 -19 52 -5 66 -10 83 -31 14 -18 30 -26 52 -26
18 0 35 -4 38 -10 3 -5 15 -10 26 -10 30 0 18 -23 -17 -32 -34 -9 -157 10
-148 23 3 5 16 9 30 9 14 0 24 6 24 15 0 11 -18 15 -77 17 -61 2 -77 6 -75 17
5 22 -18 31 -80 31 -65 0 -73 10 -25 34 37 18 80 20 108 5z m408 -113 c13 -26
21 -49 18 -52 -3 -3 -18 0 -34 8 -29 13 -73 87 -73 121 0 18 3 18 33 -5 17
-14 43 -46 56 -72z m484 84 c23 0 27 -4 27 -27 0 -31 -34 -93 -50 -93 -18 0
-50 63 -50 99 0 30 2 33 23 27 12 -3 34 -6 50 -6z m487 -34 c0 -39 -29 -80
-72 -102 -36 -19 -44 -14 -28 18 19 35 83 118 92 118 4 0 8 -15 8 -34z m-590
-11 c0 -26 -53 -95 -73 -95 -15 0 -18 5 -13 23 3 12 6 30 6 40 0 10 11 22 24
27 13 5 27 14 31 20 8 13 25 3 25 -15z m240 -46 c0 -9 3 -24 6 -33 5 -12 0
-16 -20 -16 -17 0 -26 5 -26 15 0 8 -9 23 -20 32 -11 10 -20 30 -20 45 l0 28
40 -26 c22 -15 40 -35 40 -45z m665 57 l30 -13 -23 -12 c-29 -15 -134 -11
-140 7 -9 28 81 41 133 18z m-1201 -62 c26 -25 56 -80 56 -104 0 -19 -62 23
-81 55 -19 30 -26 75 -11 75 4 0 20 -12 36 -26z m760 -11 c-12 -49 -34 -82
-64 -98 -16 -8 -33 -15 -39 -15 -16 0 36 96 65 119 36 28 46 26 38 -6z m315
16 c40 -14 40 -26 -2 -34 -55 -11 -132 -2 -132 15 0 26 80 38 134 19z m-751
-21 c27 -27 2 -98 -35 -98 -16 0 -18 62 -3 91 12 22 21 24 38 7z m140 -69 l-3
-53 -33 41 -33 42 23 26 c32 37 50 15 46 -56z m-339 16 c25 -28 41 -54 41 -70
0 -31 -5 -31 -46 0 -28 22 -54 72 -54 108 0 17 20 4 59 -38z m520 -3 c-15 -51
-47 -89 -81 -98 -27 -6 -27 -6 -15 27 13 35 93 126 103 117 3 -3 0 -24 -7 -46z
m-763 13 c16 -13 17 -16 4 -25 -33 -22 -150 -7 -150 20 0 21 119 26 146 5z
m1083 -9 c9 -11 5 -16 -20 -25 -57 -20 -139 -9 -139 19 0 21 142 27 159 6z
m-573 -27 c10 -17 7 -70 -5 -82 -20 -20 -41 14 -34 56 5 36 25 49 39 26z
m-369 -35 l28 -18 -25 -7 c-39 -11 -94 -10 -129 2 -37 13 -39 22 -8 37 30 16
101 8 134 -14z m808 4 c42 -19 34 -28 -43 -43 -39 -8 -102 2 -102 15 0 15 53
39 87 40 18 0 44 -5 58 -12z m-690 -68 c15 -12 15 -14 1 -22 -38 -21 -166 -5
-166 21 0 23 137 24 165 1z m581 -4 c18 -14 18 -15 -9 -25 -31 -12 -98 -13
-137 -2 l-25 7 30 17 c37 20 115 22 141 3z m-455 -17 c35 -11 71 -23 79 -26
12 -4 12 -6 -3 -15 -17 -9 -17 -11 -1 -22 15 -11 6 -16 -62 -34 -130 -34 -153
-37 -160 -17 -10 24 12 35 76 36 105 2 140 27 68 48 -71 22 -89 31 -83 41 8
13 12 13 86 -11z m-72 -30 c47 -17 24 -33 -33 -25 -59 9 -61 24 -5 35 3 0 21
-4 38 -10z m355 2 c3 -5 -1 -14 -10 -21 -11 -10 -18 -10 -27 -1 -9 9 -9 14 3
21 19 12 27 12 34 1z"/>
<path d="M860 1995 c-61 -18 -110 -58 -110 -91 0 -30 37 -74 77 -91 41 -17 36
-28 -14 -37 -60 -9 -103 -41 -103 -75 0 -75 91 -115 260 -116 170 0 260 40
260 118 0 48 -38 81 -132 111 -30 9 -20 20 29 36 32 10 53 24 63 42 13 25 13
29 -6 55 -12 15 -38 34 -60 41 -62 21 -200 24 -264 7z m177 -42 c18 -23 16
-54 -3 -82 -19 -26 -47 -23 -102 11 -63 39 -22 105 58 94 19 -3 41 -13 47 -23z
m-23 -211 c60 -33 73 -61 45 -95 -24 -31 -85 -43 -134 -27 -40 13 -55 35 -55
80 0 30 2 31 30 25 33 -7 70 1 70 16 0 5 -7 9 -15 9 -8 0 -15 5 -15 10 0 16
22 11 74 -18z"/>
<path d="M1975 1977 c-49 -16 -92 -31 -94 -33 -3 -3 5 -12 18 -20 22 -16 22
-20 19 -175 l-3 -159 75 0 75 0 0 210 c0 116 0 209 0 209 0 -1 -40 -15 -90
-32z"/>
<path d="M1457 1850 c-97 -82 -179 -155 -182 -161 -13 -21 10 -27 60 -17 30 7
82 8 129 3 l78 -7 -5 -39 -5 -39 78 0 77 0 -1 37 c-1 36 1 38 38 44 58 9 139
110 89 109 -10 -1 -29 -7 -43 -15 -14 -8 -40 -14 -58 -15 l-34 0 4 125 3 125
-27 0 c-19 0 -71 -38 -201 -150z m83 -35 c0 -36 -4 -57 -12 -60 -22 -6 -138
-12 -137 -6 1 8 132 120 142 121 4 0 7 -25 7 -55z"/>
<path d="M382 568 l3 -123 960 -5 c528 -3 954 -6 948 -8 -10 -1 -13 -42 -13
-162 l0 -160 -870 0 -870 0 0 160 c0 136 -2 160 -15 160 -13 0 -15 -25 -15
-163 0 -113 4 -167 12 -175 17 -17 1759 -17 1776 0 8 8 12 63 12 180 l0 168
55 0 55 0 0 125 0 125 -1020 0 -1021 0 3 -122z m211 43 c15 -15 19 -82 5 -98
-6 -7 -31 -13 -59 -13 l-49 0 0 58 c0 32 3 61 6 65 10 9 84 1 97 -12z m206 -7
c11 -10 12 -16 2 -28 -9 -11 -10 -20 -2 -35 16 -29 14 -41 -7 -41 -11 0 -24
11 -30 25 -6 14 -16 25 -22 25 -5 0 -10 -11 -10 -25 0 -18 -5 -25 -20 -25 -18
0 -20 7 -20 59 0 54 2 60 23 64 31 5 69 -3 86 -19z m191 5 c0 -5 -13 -9 -30
-9 -36 0 -40 -17 -5 -22 29 -3 35 -22 8 -26 -41 -7 -49 -12 -33 -22 8 -6 25
-10 38 -10 12 0 22 -4 22 -10 0 -5 -22 -10 -49 -10 l-49 0 -4 58 c-3 31 -2 59
3 62 12 8 99 -1 99 -11z m265 -8 c-4 -9 -14 -35 -22 -59 -19 -54 -50 -55 -68
-3 -12 37 -18 34 -29 -11 -9 -40 -43 -37 -61 5 -7 18 -17 45 -20 60 -6 23 -4
27 13 27 15 0 22 -9 27 -30 9 -43 22 -45 29 -5 6 28 11 35 30 35 19 0 26 -7
34 -37 8 -32 10 -35 16 -18 21 58 26 64 41 59 10 -4 14 -13 10 -23z m163 1 c5
-32 59 -31 64 1 2 12 10 22 18 22 11 0 16 -15 18 -62 3 -58 1 -63 -18 -63 -15
0 -20 6 -20 25 0 21 -5 25 -30 25 -25 0 -30 -4 -30 -25 0 -18 -5 -25 -20 -25
-18 0 -20 7 -20 58 0 32 3 62 7 66 12 11 28 0 31 -22z m296 16 c68 -30 41
-118 -36 -118 -50 0 -74 13 -82 44 -9 35 3 56 38 72 39 17 49 17 80 2z m154
-42 c5 -77 62 -73 62 5 0 32 3 39 20 39 16 0 20 -7 20 -38 0 -54 -23 -82 -66
-82 -59 0 -74 14 -74 69 0 26 3 51 7 55 16 15 28 -4 31 -48z m260 48 c32 -9
27 -24 -8 -24 -39 0 -39 -15 0 -29 66 -23 40 -74 -35 -69 -22 2 -39 8 -37 13
2 6 16 9 32 7 41 -4 39 19 -3 38 -38 18 -41 40 -7 57 29 15 28 15 58 7z m207
-15 c-4 -5 -19 -9 -36 -9 -36 0 -38 -18 -2 -22 39 -5 42 -28 3 -28 -42 0 -35
-24 8 -28 53 -5 36 -22 -23 -22 l-55 0 0 59 0 60 48 3 c53 3 65 1 57 -13z"/>
<path d="M530 590 c0 -5 7 -10 15 -10 8 0 15 5 15 10 0 6 -7 10 -15 10 -8 0
-15 -4 -15 -10z"/>
<path d="M530 534 c0 -9 7 -14 17 -12 25 5 28 28 4 28 -12 0 -21 -6 -21 -16z"/>
<path d="M730 584 c0 -9 7 -14 17 -12 25 5 28 28 4 28 -12 0 -21 -6 -21 -16z"/>
<path d="M1641 581 c-14 -25 -5 -48 20 -56 27 -9 51 13 47 44 -4 34 -51 43
-67 12z"/>
<path d="M651 387 c-30 -10 -62 -50 -49 -63 3 -3 21 4 39 15 61 37 65 22 14
-59 -37 -58 -40 -67 -25 -90 7 -12 16 -7 44 25 l35 40 1 -32 c0 -38 15 -50 37
-31 27 21 86 159 74 171 -7 7 -12 1 -17 -19 -14 -59 -58 -129 -75 -118 -5 3 5
32 21 64 52 103 36 108 -35 12 -25 -35 -48 -62 -51 -60 -2 3 10 30 27 61 24
46 28 60 19 77 -12 22 -12 22 -59 7z"/>
<path d="M1780 382 c-22 -10 -36 -26 -38 -39 -4 -28 -1 -28 40 -3 60 36 63 24
13 -51 -53 -81 -43 -143 12 -74 31 39 48 45 38 15 -4 -12 -1 -28 6 -36 10 -13
14 -12 31 3 31 28 66 94 73 138 9 50 -7 37 -23 -20 -14 -45 -57 -103 -69 -92
-4 4 8 37 25 73 32 64 35 108 4 62 -35 -52 -87 -118 -93 -118 -3 0 8 27 25 60
24 46 29 63 20 77 -15 24 -25 25 -64 5z"/>
<path d="M871 351 c-31 -42 -61 -112 -61 -140 l0 -24 26 24 27 24 -6 -22 c-6
-26 11 -31 32 -10 10 10 14 9 22 -6 8 -13 14 -15 30 -7 10 6 19 15 19 21 0 6
-4 7 -10 4 -21 -13 -31 7 -16 31 18 26 21 44 7 44 -5 0 -16 -16 -25 -35 -16
-33 -45 -51 -32 -20 3 8 9 22 12 30 8 20 -6 19 -35 -1 l-23 -16 16 28 c8 16
24 43 35 59 12 17 21 33 21 38 0 16 -20 5 -39 -22z"/>
<path d="M1018 316 c-16 -12 -28 -31 -28 -42 0 -11 -4 -24 -9 -29 -13 -14 -2
-65 14 -65 7 0 18 7 25 15 12 14 15 14 31 -1 18 -16 20 -16 37 -1 22 20 39 22
45 5 3 -10 8 -10 21 1 14 12 18 12 29 -3 12 -16 14 -16 31 3 23 25 30 26 51 5
12 -13 19 -14 28 -5 15 15 27 14 27 -4 0 -19 14 -19 29 -1 9 11 9 15 -1 18 -9
3 -9 11 1 37 27 63 -27 61 -82 -3 -19 -21 -19 -21 -13 12 7 43 -9 41 -25 -3
-7 -19 -17 -35 -21 -35 -11 0 -10 13 2 44 6 17 6 26 0 26 -6 0 -10 -3 -10 -8
0 -11 -51 -64 -57 -58 -3 3 4 18 16 34 25 35 26 42 8 42 -8 0 -20 -12 -27 -27
-22 -43 -41 -63 -62 -63 -25 0 -23 7 14 41 22 22 28 33 20 41 -17 17 -39 3
-67 -42 -14 -22 -30 -40 -35 -40 -18 0 -10 28 16 59 14 17 24 39 22 50 -3 19
-4 19 -30 -3z m291 -82 c-15 -16 -25 -21 -28 -13 -2 7 4 18 15 26 30 22 39 15
13 -13z"/>
<path d="M1416 315 c-16 -12 -25 -28 -22 -34 4 -6 1 -20 -7 -31 -15 -22 -11
-70 6 -70 6 0 19 8 29 17 17 15 19 15 31 -2 17 -22 45 -9 77 35 23 33 47 32
29 -1 -14 -27 6 -55 27 -38 16 13 19 33 5 24 -17 -10 -21 11 -6 31 21 28 18
41 -11 47 -21 4 -28 -1 -42 -31 -18 -37 -46 -61 -58 -49 -4 4 5 20 19 35 31
33 35 52 9 52 -21 0 -43 -22 -60 -62 -14 -35 -47 -39 -37 -5 4 12 16 32 27 44
11 11 18 30 16 41 -3 20 -4 20 -32 -3z m84 -39 c0 -3 -4 -8 -10 -11 -5 -3 -10
-1 -10 4 0 6 5 11 10 11 6 0 10 -2 10 -4z"/>
<path d="M955 320 c-3 -5 -2 -10 4 -10 5 0 13 5 16 10 3 6 2 10 -4 10 -5 0
-13 -4 -16 -10z"/>
<path d="M1995 321 c-3 -5 -1 -12 4 -15 5 -3 11 1 15 9 6 16 -9 21 -19 6z"/>
<path d="M2032 258 l-32 -42 20 -20 c31 -31 52 -12 57 52 2 29 0 52 -4 52 -5
0 -23 -19 -41 -42z m28 -5 c0 -5 -4 -15 -10 -23 -11 -18 -25 -7 -17 15 6 15
27 21 27 8z"/>
<path d="M2125 280 c-36 -40 -42 -63 -22 -83 17 -17 20 -17 43 -2 32 21 30 26
-7 18 -27 -5 -31 -3 -27 13 2 10 16 25 31 32 28 14 37 42 14 42 -8 0 -22 -9
-32 -20z"/>
<path d="M1962 270 c-6 -11 -12 -33 -12 -50 0 -23 4 -30 20 -30 24 0 26 15 4
24 -15 6 -15 8 0 31 9 13 16 29 16 35 0 16 -14 12 -28 -10z"/>
<path d="M2192 217 c-9 -11 -10 -17 -2 -22 15 -9 23 -1 18 21 -3 15 -4 16 -16
1z"/>
<path d="M1623 205 c-8 -22 6 -33 17 -15 13 20 12 30 0 30 -6 0 -13 -7 -17
-15z"/>
</g>
</svg>
